<svg xmlns="http://www.w3.org/2000/svg" width="1900" height="1250" viewBox="0 0 1900 1250">
<title>超市库存管理系统功能模块结构图</title>
<desc>黑白 UML 组件图；中文字体为五号宋体，英文和数字为 5 号 Times New Roman。</desc>

<defs>
  <marker id="arrow" markerWidth="10" markerHeight="10" refX="9" refY="5" orient="auto" markerUnits="strokeWidth">
    <path d="M0,0 L10,5 L0,10 Z" fill="black"/>
  </marker>
</defs>

<rect x="0" y="0" width="1900" height="1250" fill="white"/>
<text x="950.0" y="36" text-anchor="middle" dominant-baseline="middle" font-size="10.5pt" fill="black"><tspan font-family="SimSun, 宋体">超市库存管理系统功能模块结构图（</tspan><tspan font-family="Times New Roman">UML</tspan><tspan font-family="SimSun, 宋体">组件图）</tspan></text>
<path d="M70,94 L70,305 L1830,305 L1830,94 L322,94 L304,70 L70,70 Z" fill="white" stroke="black" stroke-width="1.8"/>
<text x="88" y="83" text-anchor="start" dominant-baseline="middle" font-size="10.5pt" fill="black"><tspan font-family="SimSun, 宋体">表现层：</tspan><tspan font-family="Times New Roman">Vue 3 </tspan><tspan font-family="SimSun, 宋体">管理后台</tspan></text>
<rect x="105" y="118" width="280" height="125" fill="white" stroke="black" stroke-width="1.6"/>
<rect x="353" y="128" width="22" height="16" fill="white" stroke="black" stroke-width="1.2"/>
<rect x="348" y="131" width="8" height="4" fill="white" stroke="black" stroke-width="1.1"/>
<rect x="348" y="138" width="8" height="4" fill="white" stroke="black" stroke-width="1.1"/>
<text x="245.0" y="158.5" text-anchor="middle" dominant-baseline="middle" font-size="10.5pt" fill="black"><tspan font-family="Times New Roman">&lt;&lt;component&gt;&gt;</tspan></text>
<text x="245.0" y="180.5" text-anchor="middle" dominant-baseline="middle" font-size="10.5pt" fill="black"><tspan font-family="SimSun, 宋体">前端应用</tspan></text>
<text x="245.0" y="202.5" text-anchor="middle" dominant-baseline="middle" font-size="10.5pt" fill="black"><tspan font-family="Times New Roman">Router / Pinia / Axios</tspan></text>
<rect x="455" y="112" width="145" height="48" fill="white" stroke="black" stroke-width="1.6"/>
<rect x="568" y="122" width="22" height="16" fill="white" stroke="black" stroke-width="1.2"/>
<rect x="563" y="125" width="8" height="4" fill="white" stroke="black" stroke-width="1.1"/>
<rect x="563" y="132" width="8" height="4" fill="white" stroke="black" stroke-width="1.1"/>
<text x="527.5" y="125.0" text-anchor="middle" dominant-baseline="middle" font-size="10.5pt" fill="black"><tspan font-family="Times New Roman">&lt;&lt;component&gt;&gt;</tspan></text>
<text x="527.5" y="147.0" text-anchor="middle" dominant-baseline="middle" font-size="10.5pt" fill="black"><tspan font-family="SimSun, 宋体">登录认证</tspan></text>
<rect x="625" y="112" width="145" height="48" fill="white" stroke="black" stroke-width="1.6"/>
<rect x="738" y="122" width="22" height="16" fill="white" stroke="black" stroke-width="1.2"/>
<rect x="733" y="125" width="8" height="4" fill="white" stroke="black" stroke-width="1.1"/>
<rect x="733" y="132" width="8" height="4" fill="white" stroke="black" stroke-width="1.1"/>
<text x="697.5" y="125.0" text-anchor="middle" dominant-baseline="middle" font-size="10.5pt" fill="black"><tspan font-family="Times New Roman">&lt;&lt;component&gt;&gt;</tspan></text>
<text x="697.5" y="147.0" text-anchor="middle" dominant-baseline="middle" font-size="10.5pt" fill="black"><tspan font-family="SimSun, 宋体">首页工作台</tspan></text>
<rect x="795" y="112" width="145" height="48" fill="white" stroke="black" stroke-width="1.6"/>
<rect x="908" y="122" width="22" height="16" fill="white" stroke="black" stroke-width="1.2"/>
<rect x="903" y="125" width="8" height="4" fill="white" stroke="black" stroke-width="1.1"/>
<rect x="903" y="132" width="8" height="4" fill="white" stroke="black" stroke-width="1.1"/>
<text x="867.5" y="125.0" text-anchor="middle" dominant-baseline="middle" font-size="10.5pt" fill="black"><tspan font-family="Times New Roman">&lt;&lt;component&gt;&gt;</tspan></text>
<text x="867.5" y="147.0" text-anchor="middle" dominant-baseline="middle" font-size="10.5pt" fill="black"><tspan font-family="SimSun, 宋体">用户权限</tspan></text>
<rect x="965" y="112" width="145" height="48" fill="white" stroke="black" stroke-width="1.6"/>
<rect x="1078" y="122" width="22" height="16" fill="white" stroke="black" stroke-width="1.2"/>
<rect x="1073" y="125" width="8" height="4" fill="white" stroke="black" stroke-width="1.1"/>
<rect x="1073" y="132" width="8" height="4" fill="white" stroke="black" stroke-width="1.1"/>
<text x="1037.5" y="125.0" text-anchor="middle" dominant-baseline="middle" font-size="10.5pt" fill="black"><tspan font-family="Times New Roman">&lt;&lt;component&gt;&gt;</tspan></text>
<text x="1037.5" y="147.0" text-anchor="middle" dominant-baseline="middle" font-size="10.5pt" fill="black"><tspan font-family="SimSun, 宋体">商品中心</tspan></text>
<rect x="1135" y="112" width="145" height="48" fill="white" stroke="black" stroke-width="1.6"/>
<rect x="1248" y="122" width="22" height="16" fill="white" stroke="black" stroke-width="1.2"/>
<rect x="1243" y="125" width="8" height="4" fill="white" stroke="black" stroke-width="1.1"/>
<rect x="1243" y="132" width="8" height="4" fill="white" stroke="black" stroke-width="1.1"/>
<text x="1207.5" y="125.0" text-anchor="middle" dominant-baseline="middle" font-size="10.5pt" fill="black"><tspan font-family="Times New Roman">&lt;&lt;component&gt;&gt;</tspan></text>
<text x="1207.5" y="147.0" text-anchor="middle" dominant-baseline="middle" font-size="10.5pt" fill="black"><tspan font-family="SimSun, 宋体">供应商管理</tspan></text>
<rect x="1305" y="112" width="145" height="48" fill="white" stroke="black" stroke-width="1.6"/>
<rect x="1418" y="122" width="22" height="16" fill="white" stroke="black" stroke-width="1.2"/>
<rect x="1413" y="125" width="8" height="4" fill="white" stroke="black" stroke-width="1.1"/>
<rect x="1413" y="132" width="8" height="4" fill="white" stroke="black" stroke-width="1.1"/>
<text x="1377.5" y="125.0" text-anchor="middle" dominant-baseline="middle" font-size="10.5pt" fill="black"><tspan font-family="Times New Roman">&lt;&lt;component&gt;&gt;</tspan></text>
<text x="1377.5" y="147.0" text-anchor="middle" dominant-baseline="middle" font-size="10.5pt" fill="black"><tspan font-family="SimSun, 宋体">采购入库</tspan></text>
<rect x="1475" y="112" width="145" height="48" fill="white" stroke="black" stroke-width="1.6"/>
<rect x="1588" y="122" width="22" height="16" fill="white" stroke="black" stroke-width="1.2"/>
<rect x="1583" y="125" width="8" height="4" fill="white" stroke="black" stroke-width="1.1"/>
<rect x="1583" y="132" width="8" height="4" fill="white" stroke="black" stroke-width="1.1"/>
<text x="1547.5" y="125.0" text-anchor="middle" dominant-baseline="middle" font-size="10.5pt" fill="black"><tspan font-family="Times New Roman">&lt;&lt;component&gt;&gt;</tspan></text>
<text x="1547.5" y="147.0" text-anchor="middle" dominant-baseline="middle" font-size="10.5pt" fill="black"><tspan font-family="SimSun, 宋体">库存中心</tspan></text>
<rect x="545" y="202" width="145" height="48" fill="white" stroke="black" stroke-width="1.6"/>
<rect x="658" y="212" width="22" height="16" fill="white" stroke="black" stroke-width="1.2"/>
<rect x="653" y="215" width="8" height="4" fill="white" stroke="black" stroke-width="1.1"/>
<rect x="653" y="222" width="8" height="4" fill="white" stroke="black" stroke-width="1.1"/>
<text x="617.5" y="215.0" text-anchor="middle" dominant-baseline="middle" font-size="10.5pt" fill="black"><tspan font-family="Times New Roman">&lt;&lt;component&gt;&gt;</tspan></text>
<text x="617.5" y="237.0" text-anchor="middle" dominant-baseline="middle" font-size="10.5pt" fill="black"><tspan font-family="SimSun, 宋体">出库管理</tspan></text>
<rect x="715" y="202" width="145" height="48" fill="white" stroke="black" stroke-width="1.6"/>
<rect x="828" y="212" width="22" height="16" fill="white" stroke="black" stroke-width="1.2"/>
<rect x="823" y="215" width="8" height="4" fill="white" stroke="black" stroke-width="1.1"/>
<rect x="823" y="222" width="8" height="4" fill="white" stroke="black" stroke-width="1.1"/>
<text x="787.5" y="215.0" text-anchor="middle" dominant-baseline="middle" font-size="10.5pt" fill="black"><tspan font-family="Times New Roman">&lt;&lt;component&gt;&gt;</tspan></text>
<text x="787.5" y="237.0" text-anchor="middle" dominant-baseline="middle" font-size="10.5pt" fill="black"><tspan font-family="SimSun, 宋体">盘点管理</tspan></text>
<rect x="885" y="202" width="145" height="48" fill="white" stroke="black" stroke-width="1.6"/>
<rect x="998" y="212" width="22" height="16" fill="white" stroke="black" stroke-width="1.2"/>
<rect x="993" y="215" width="8" height="4" fill="white" stroke="black" stroke-width="1.1"/>
<rect x="993" y="222" width="8" height="4" fill="white" stroke="black" stroke-width="1.1"/>
<text x="957.5" y="215.0" text-anchor="middle" dominant-baseline="middle" font-size="10.5pt" fill="black"><tspan font-family="Times New Roman">&lt;&lt;component&gt;&gt;</tspan></text>
<text x="957.5" y="237.0" text-anchor="middle" dominant-baseline="middle" font-size="10.5pt" fill="black"><tspan font-family="SimSun, 宋体">报表统计</tspan></text>
<rect x="1055" y="202" width="145" height="48" fill="white" stroke="black" stroke-width="1.6"/>
<rect x="1168" y="212" width="22" height="16" fill="white" stroke="black" stroke-width="1.2"/>
<rect x="1163" y="215" width="8" height="4" fill="white" stroke="black" stroke-width="1.1"/>
<rect x="1163" y="222" width="8" height="4" fill="white" stroke="black" stroke-width="1.1"/>
<text x="1127.5" y="215.0" text-anchor="middle" dominant-baseline="middle" font-size="10.5pt" fill="black"><tspan font-family="Times New Roman">&lt;&lt;component&gt;&gt;</tspan></text>
<text x="1127.5" y="237.0" text-anchor="middle" dominant-baseline="middle" font-size="10.5pt" fill="black"><tspan font-family="SimSun, 宋体">系统信息</tspan></text>
<path d="M70,389 L70,930 L1830,930 L1830,389 L430,389 L412,365 L70,365 Z" fill="white" stroke="black" stroke-width="1.8"/>
<text x="88" y="378" text-anchor="start" dominant-baseline="middle" font-size="10.5pt" fill="black"><tspan font-family="SimSun, 宋体">应用服务层：</tspan><tspan font-family="Times New Roman">Spring Boot REST API</tspan></text>
<rect x="110" y="415" width="295" height="82" fill="white" stroke="black" stroke-width="1.6"/>
<rect x="373" y="425" width="22" height="16" fill="white" stroke="black" stroke-width="1.2"/>
<rect x="368" y="428" width="8" height="4" fill="white" stroke="black" stroke-width="1.1"/>
<rect x="368" y="435" width="8" height="4" fill="white" stroke="black" stroke-width="1.1"/>
<text x="257.5" y="434.0" text-anchor="middle" dominant-baseline="middle" font-size="10.5pt" fill="black"><tspan font-family="Times New Roman">&lt;&lt;component&gt;&gt;</tspan></text>
<text x="257.5" y="456.0" text-anchor="middle" dominant-baseline="middle" font-size="10.5pt" fill="black"><tspan font-family="SimSun, 宋体">认证与权限模块</tspan></text>
<text x="257.5" y="478.0" text-anchor="middle" dominant-baseline="middle" font-size="10.5pt" fill="black"><tspan font-family="Times New Roman">Auth / User / Role / Permission</tspan></text>
<rect x="1435" y="415" width="300" height="82" fill="white" stroke="black" stroke-width="1.6"/>
<rect x="1703" y="425" width="22" height="16" fill="white" stroke="black" stroke-width="1.2"/>
<rect x="1698" y="428" width="8" height="4" fill="white" stroke="black" stroke-width="1.1"/>
<rect x="1698" y="435" width="8" height="4" fill="white" stroke="black" stroke-width="1.1"/>
<text x="1585.0" y="434.0" text-anchor="middle" dominant-baseline="middle" font-size="10.5pt" fill="black"><tspan font-family="Times New Roman">&lt;&lt;component&gt;&gt;</tspan></text>
<text x="1585.0" y="456.0" text-anchor="middle" dominant-baseline="middle" font-size="10.5pt" fill="black"><tspan font-family="SimSun, 宋体">公共支撑模块</tspan></text>
<text x="1585.0" y="478.0" text-anchor="middle" dominant-baseline="middle" font-size="10.5pt" fill="black"><tspan font-family="Times New Roman">Response / Exception / Page</tspan></text>
<rect x="110" y="560" width="250" height="88" fill="white" stroke="black" stroke-width="1.6"/>
<rect x="328" y="570" width="22" height="16" fill="white" stroke="black" stroke-width="1.2"/>
<rect x="323" y="573" width="8" height="4" fill="white" stroke="black" stroke-width="1.1"/>
<rect x="323" y="580" width="8" height="4" fill="white" stroke="black" stroke-width="1.1"/>
<text x="235.0" y="571.0" text-anchor="middle" dominant-baseline="middle" font-size="10.5pt" fill="black"><tspan font-family="Times New Roman">&lt;&lt;component&gt;&gt;</tspan></text>
<text x="235.0" y="593.0" text-anchor="middle" dominant-baseline="middle" font-size="10.5pt" fill="black"><tspan font-family="SimSun, 宋体">主数据模块</tspan></text>
<text x="235.0" y="615.0" text-anchor="middle" dominant-baseline="middle" font-size="10.5pt" fill="black"><tspan font-family="Times New Roman">Category / Brand / SPU</tspan></text>
<text x="235.0" y="637.0" text-anchor="middle" dominant-baseline="middle" font-size="10.5pt" fill="black"><tspan font-family="Times New Roman">SKU / Unit</tspan></text>
<rect x="405" y="560" width="250" height="88" fill="white" stroke="black" stroke-width="1.6"/>
<rect x="623" y="570" width="22" height="16" fill="white" stroke="black" stroke-width="1.2"/>
<rect x="618" y="573" width="8" height="4" fill="white" stroke="black" stroke-width="1.1"/>
<rect x="618" y="580" width="8" height="4" fill="white" stroke="black" stroke-width="1.1"/>
<text x="530.0" y="582.0" text-anchor="middle" dominant-baseline="middle" font-size="10.5pt" fill="black"><tspan font-family="Times New Roman">&lt;&lt;component&gt;&gt;</tspan></text>
<text x="530.0" y="604.0" text-anchor="middle" dominant-baseline="middle" font-size="10.5pt" fill="black"><tspan font-family="SimSun, 宋体">供应商模块</tspan></text>
<text x="530.0" y="626.0" text-anchor="middle" dominant-baseline="middle" font-size="10.5pt" fill="black"><tspan font-family="Times New Roman">Supplier / SupplierSku</tspan></text>
<rect x="700" y="560" width="275" height="88" fill="white" stroke="black" stroke-width="1.6"/>
<rect x="943" y="570" width="22" height="16" fill="white" stroke="black" stroke-width="1.2"/>
<rect x="938" y="573" width="8" height="4" fill="white" stroke="black" stroke-width="1.1"/>
<rect x="938" y="580" width="8" height="4" fill="white" stroke="black" stroke-width="1.1"/>
<text x="837.5" y="582.0" text-anchor="middle" dominant-baseline="middle" font-size="10.5pt" fill="black"><tspan font-family="Times New Roman">&lt;&lt;component&gt;&gt;</tspan></text>
<text x="837.5" y="604.0" text-anchor="middle" dominant-baseline="middle" font-size="10.5pt" fill="black"><tspan font-family="SimSun, 宋体">采购入库模块</tspan></text>
<text x="837.5" y="626.0" text-anchor="middle" dominant-baseline="middle" font-size="10.5pt" fill="black"><tspan font-family="Times New Roman">Plan / Approval / Receipt</tspan></text>
<rect x="1030" y="560" width="250" height="88" fill="white" stroke="black" stroke-width="1.6"/>
<rect x="1248" y="570" width="22" height="16" fill="white" stroke="black" stroke-width="1.2"/>
<rect x="1243" y="573" width="8" height="4" fill="white" stroke="black" stroke-width="1.1"/>
<rect x="1243" y="580" width="8" height="4" fill="white" stroke="black" stroke-width="1.1"/>
<text x="1155.0" y="582.0" text-anchor="middle" dominant-baseline="middle" font-size="10.5pt" fill="black"><tspan font-family="Times New Roman">&lt;&lt;component&gt;&gt;</tspan></text>
<text x="1155.0" y="604.0" text-anchor="middle" dominant-baseline="middle" font-size="10.5pt" fill="black"><tspan font-family="SimSun, 宋体">库存总账模块</tspan></text>
<text x="1155.0" y="626.0" text-anchor="middle" dominant-baseline="middle" font-size="10.5pt" fill="black"><tspan font-family="Times New Roman">Stock / StockLog</tspan></text>
<rect x="1385" y="560" width="300" height="88" fill="white" stroke="black" stroke-width="1.6"/>
<rect x="1653" y="570" width="22" height="16" fill="white" stroke="black" stroke-width="1.2"/>
<rect x="1648" y="573" width="8" height="4" fill="white" stroke="black" stroke-width="1.1"/>
<rect x="1648" y="580" width="8" height="4" fill="white" stroke="black" stroke-width="1.1"/>
<text x="1535.0" y="582.0" text-anchor="middle" dominant-baseline="middle" font-size="10.5pt" fill="black"><tspan font-family="Times New Roman">&lt;&lt;component&gt;&gt;</tspan></text>
<text x="1535.0" y="604.0" text-anchor="middle" dominant-baseline="middle" font-size="10.5pt" fill="black"><tspan font-family="SimSun, 宋体">库存批次模块</tspan></text>
<text x="1535.0" y="626.0" text-anchor="middle" dominant-baseline="middle" font-size="10.5pt" fill="black"><tspan font-family="Times New Roman">StockBatch / BatchLog</tspan></text>
<rect x="700" y="740" width="250" height="88" fill="white" stroke="black" stroke-width="1.6"/>
<rect x="918" y="750" width="22" height="16" fill="white" stroke="black" stroke-width="1.2"/>
<rect x="913" y="753" width="8" height="4" fill="white" stroke="black" stroke-width="1.1"/>
<rect x="913" y="760" width="8" height="4" fill="white" stroke="black" stroke-width="1.1"/>
<text x="825.0" y="762.0" text-anchor="middle" dominant-baseline="middle" font-size="10.5pt" fill="black"><tspan font-family="Times New Roman">&lt;&lt;component&gt;&gt;</tspan></text>
<text x="825.0" y="784.0" text-anchor="middle" dominant-baseline="middle" font-size="10.5pt" fill="black"><tspan font-family="SimSun, 宋体">出库管理模块</tspan></text>
<text x="825.0" y="806.0" text-anchor="middle" dominant-baseline="middle" font-size="10.5pt" fill="black"><tspan font-family="Times New Roman">Outbound / FEFO</tspan></text>
<rect x="1030" y="740" width="250" height="88" fill="white" stroke="black" stroke-width="1.6"/>
<rect x="1248" y="750" width="22" height="16" fill="white" stroke="black" stroke-width="1.2"/>
<rect x="1243" y="753" width="8" height="4" fill="white" stroke="black" stroke-width="1.1"/>
<rect x="1243" y="760" width="8" height="4" fill="white" stroke="black" stroke-width="1.1"/>
<text x="1155.0" y="762.0" text-anchor="middle" dominant-baseline="middle" font-size="10.5pt" fill="black"><tspan font-family="Times New Roman">&lt;&lt;component&gt;&gt;</tspan></text>
<text x="1155.0" y="784.0" text-anchor="middle" dominant-baseline="middle" font-size="10.5pt" fill="black"><tspan font-family="SimSun, 宋体">盘点管理模块</tspan></text>
<text x="1155.0" y="806.0" text-anchor="middle" dominant-baseline="middle" font-size="10.5pt" fill="black"><tspan font-family="Times New Roman">StockCheck</tspan></text>
<rect x="1385" y="740" width="300" height="88" fill="white" stroke="black" stroke-width="1.6"/>
<rect x="1653" y="750" width="22" height="16" fill="white" stroke="black" stroke-width="1.2"/>
<rect x="1648" y="753" width="8" height="4" fill="white" stroke="black" stroke-width="1.1"/>
<rect x="1648" y="760" width="8" height="4" fill="white" stroke="black" stroke-width="1.1"/>
<text x="1535.0" y="762.0" text-anchor="middle" dominant-baseline="middle" font-size="10.5pt" fill="black"><tspan font-family="Times New Roman">&lt;&lt;component&gt;&gt;</tspan></text>
<text x="1535.0" y="784.0" text-anchor="middle" dominant-baseline="middle" font-size="10.5pt" fill="black"><tspan font-family="SimSun, 宋体">报表统计模块</tspan></text>
<text x="1535.0" y="806.0" text-anchor="middle" dominant-baseline="middle" font-size="10.5pt" fill="black"><tspan font-family="Times New Roman">Report</tspan></text>
<rect x="405" y="740" width="250" height="88" fill="white" stroke="black" stroke-width="1.6"/>
<rect x="623" y="750" width="22" height="16" fill="white" stroke="black" stroke-width="1.2"/>
<rect x="618" y="753" width="8" height="4" fill="white" stroke="black" stroke-width="1.1"/>
<rect x="618" y="760" width="8" height="4" fill="white" stroke="black" stroke-width="1.1"/>
<text x="530.0" y="762.0" text-anchor="middle" dominant-baseline="middle" font-size="10.5pt" fill="black"><tspan font-family="Times New Roman">&lt;&lt;component&gt;&gt;</tspan></text>
<text x="530.0" y="784.0" text-anchor="middle" dominant-baseline="middle" font-size="10.5pt" fill="black"><tspan font-family="SimSun, 宋体">系统信息模块</tspan></text>
<text x="530.0" y="806.0" text-anchor="middle" dominant-baseline="middle" font-size="10.5pt" fill="black"><tspan font-family="Times New Roman">System</tspan></text>
<text x="925" y="894" text-anchor="middle" dominant-baseline="middle" font-size="10.5pt" fill="black"><tspan font-family="Times New Roman">Controller -&gt; Service -&gt; Mapper -&gt; MySQL</tspan></text>
<path d="M70,1034 L70,1180 L1830,1180 L1830,1034 L304,1034 L286,1010 L70,1010 Z" fill="white" stroke="black" stroke-width="1.8"/>
<text x="88" y="1023" text-anchor="start" dominant-baseline="middle" font-size="10.5pt" fill="black"><tspan font-family="SimSun, 宋体">数据层：</tspan><tspan font-family="Times New Roman">MySQL 8.0</tspan></text>
<path d="M105,1068 C105,1044 365,1044 365,1068 L365,1127 C365,1151 105,1151 105,1127 Z" fill="white" stroke="black" stroke-width="1.6"/>
<ellipse cx="235.0" cy="1068" rx="130.0" ry="18" fill="white" stroke="black" stroke-width="1.6"/>
<text x="235.0" y="1081.5" text-anchor="middle" dominant-baseline="middle" font-size="10.5pt" fill="black"><tspan font-family="Times New Roman">&lt;&lt;database&gt;&gt;</tspan></text>
<text x="235.0" y="1103.5" text-anchor="middle" dominant-baseline="middle" font-size="10.5pt" fill="black"><tspan font-family="SimSun, 宋体">业务数据库</tspan></text>
<text x="235.0" y="1125.5" text-anchor="middle" dominant-baseline="middle" font-size="10.5pt" fill="black"><tspan font-family="Times New Roman">market</tspan></text>
<rect x="425" y="1048" width="210" height="43" fill="white" stroke="black" stroke-width="1.6"/>
<text x="530" y="1070" text-anchor="middle" dominant-baseline="middle" font-size="10.5pt" fill="black"><tspan font-family="SimSun, 宋体">用户</tspan><tspan font-family="Times New Roman">/</tspan><tspan font-family="SimSun, 宋体">角色</tspan><tspan font-family="Times New Roman">/</tspan><tspan font-family="SimSun, 宋体">权限表</tspan></text>
<rect x="655" y="1048" width="210" height="43" fill="white" stroke="black" stroke-width="1.6"/>
<text x="760" y="1070" text-anchor="middle" dominant-baseline="middle" font-size="10.5pt" fill="black"><tspan font-family="SimSun, 宋体">分类</tspan><tspan font-family="Times New Roman">/</tspan><tspan font-family="SimSun, 宋体">品牌</tspan><tspan font-family="Times New Roman">/SPU/SKU</tspan><tspan font-family="SimSun, 宋体">表</tspan></text>
<rect x="910" y="1048" width="210" height="43" fill="white" stroke="black" stroke-width="1.6"/>
<text x="1015" y="1070" text-anchor="middle" dominant-baseline="middle" font-size="10.5pt" fill="black"><tspan font-family="SimSun, 宋体">供应商</tspan><tspan font-family="Times New Roman">/</tspan><tspan font-family="SimSun, 宋体">供货绑定表</tspan></text>
<rect x="1165" y="1048" width="210" height="43" fill="white" stroke="black" stroke-width="1.6"/>
<text x="1270" y="1070" text-anchor="middle" dominant-baseline="middle" font-size="10.5pt" fill="black"><tspan font-family="SimSun, 宋体">采购</tspan><tspan font-family="Times New Roman">/</tspan><tspan font-family="SimSun, 宋体">收货单据表</tspan></text>
<rect x="1420" y="1048" width="210" height="43" fill="white" stroke="black" stroke-width="1.6"/>
<text x="1525" y="1070" text-anchor="middle" dominant-baseline="middle" font-size="10.5pt" fill="black"><tspan font-family="SimSun, 宋体">库存</tspan><tspan font-family="Times New Roman">/</tspan><tspan font-family="SimSun, 宋体">批次</tspan><tspan font-family="Times New Roman">/</tspan><tspan font-family="SimSun, 宋体">流水表</tspan></text>
<rect x="655" y="1112" width="210" height="43" fill="white" stroke="black" stroke-width="1.6"/>
<text x="760" y="1134" text-anchor="middle" dominant-baseline="middle" font-size="10.5pt" fill="black"><tspan font-family="SimSun, 宋体">出库</tspan><tspan font-family="Times New Roman">/</tspan><tspan font-family="SimSun, 宋体">盘点</tspan><tspan font-family="Times New Roman">/</tspan><tspan font-family="SimSun, 宋体">报表数据</tspan></text>
<polyline points="245,243 245,365" fill="none" stroke="black" stroke-width="1.8" marker-end="url(#arrow)"/>
<polyline points="925,930 925,1010" fill="none" stroke="black" stroke-width="1.8" marker-end="url(#arrow)"/>
<polyline points="258,497 258,560" fill="none" stroke="black" stroke-width="1.8" stroke-dasharray="8 6" marker-end="url(#arrow)"/>
<polyline points="1585,497 1585,540" fill="none" stroke="black" stroke-width="1.8" stroke-dasharray="8 6" marker-end="url(#arrow)"/>
<polyline points="360,604 405,604" fill="none" stroke="black" stroke-width="1.8" marker-end="url(#arrow)"/>
<polyline points="655,604 700,604" fill="none" stroke="black" stroke-width="1.8" marker-end="url(#arrow)"/>
<polyline points="975,604 1030,604" fill="none" stroke="black" stroke-width="1.8" marker-end="url(#arrow)"/>
<polyline points="1280,604 1385,604" fill="none" stroke="black" stroke-width="1.8" marker-end="url(#arrow)"/>
<polyline points="825,740 825,690 1155,690 1155,648" fill="none" stroke="black" stroke-width="1.8" marker-end="url(#arrow)"/>
<polyline points="1155,740 1155,648" fill="none" stroke="black" stroke-width="1.8" marker-end="url(#arrow)"/>
<polyline points="1280,784 1385,648" fill="none" stroke="black" stroke-width="1.8" marker-end="url(#arrow)"/>
<polyline points="1385,784 1280,784" fill="none" stroke="black" stroke-width="1.8" stroke-dasharray="8 6" marker-end="url(#arrow)"/>
<polyline points="825,648 825,740" fill="none" stroke="black" stroke-width="1.8" stroke-dasharray="8 6" marker-end="url(#arrow)"/>
</svg>